<svg width="57" height="57" viewBox="0 0 57 57" fill="none" xmlns="http://www.w3.org/2000/svg">
<path d="M19.6796 48.6172C22.3298 49.7122 25.1495 50.2707 27.9727 50.2928C28.0306 50.2932 28.0887 50.2935 28.1467 50.2935C28.205 50.2935 28.2632 50.2932 28.3213 50.2928C40.4722 50.199 50.2935 40.3198 50.2935 28.1467C50.2935 26.4899 51.6366 25.1467 53.2935 25.1467C54.9503 25.1467 56.2935 26.4899 56.2935 28.1467C56.2935 35.9162 53.1455 42.9505 48.0554 48.0436L48.0495 48.0495C45.3476 50.7514 42.2331 52.7891 38.9088 54.1627C35.6473 55.5134 32.0768 56.2686 28.3327 56.2929C28.2087 56.2937 28.0847 56.2937 27.9608 56.2929C20.8195 56.246 13.6927 53.4982 8.24399 48.0495C5.54536 45.3509 3.50927 42.2406 2.13572 38.9208C0.759545 35.6021 5.30749e-07 31.9631 0 28.1467C-1.07106e-06 20.4452 3.09315 13.4661 8.10493 8.38402C8.19731 8.29034 8.29034 8.19731 8.38402 8.10493C11.0464 5.47883 14.102 3.4909 17.3596 2.14114C20.6818 0.761541 24.3253 5.31446e-07 28.1467 0L28.1516 3.84586e-06C35.2206 0.00121474 42.2892 2.64883 47.7438 7.94284L50.779 4.90768C51.2687 4.41793 52.1071 4.73966 52.1435 5.43132L52.7095 16.1849C52.7345 16.6593 52.343 17.0508 51.8686 17.0258L41.115 16.4598C40.4234 16.4234 40.1016 15.585 40.5914 15.0953L43.5005 12.1861C34.8755 3.88271 21.1785 3.93835 12.6214 12.353C12.5763 12.3973 12.5314 12.4419 12.4866 12.4866C12.4419 12.5314 12.3973 12.5763 12.353 12.6214C10.3775 14.6308 8.78256 17.0155 7.68485 19.6588C5.43985 25.0768 5.43839 31.2052 7.68046 36.6241C9.92679 42.0412 14.2611 46.3735 19.6796 48.6172Z" fill="#00A3FF"/>
</svg>
